<svg xmlns="http://www.w3.org/2000/svg" width="19" height="18"><path fill-rule="evenodd" fill="#5CBA4A" d="M18.208 14.727H.792A.805.805 0 010 13.909V4.091c0-.452.354-.819.792-.819h17.416c.437 0 .792.367.792.819v9.818a.805.805 0 01-.792.818zm-7.841-3.94c0-.887-.158-1.747-.473-2.583A7.245 7.245 0 008.572 5.98a.803.803 0 00-.598-.256.804.804 0 00-.598.256 7.262 7.262 0 00-1.321 2.224 7.244 7.244 0 00-.474 2.583v1.074c0 .102.041.196.125.281a.376.376 0 00.274.127h.798a.377.377 0 00.274-.127.396.396 0 00.125-.281v-.813h1.595v.813c0 .102.041.196.124.281a.38.38 0 00.275.127h.798a.377.377 0 00.274-.127.395.395 0 00.124-.281v-1.074zm2.369-4.239a.805.805 0 00-.792-.818.805.805 0 00-.792.818v4.909c0 .452.354.818.792.818a.805.805 0 00.792-.818V6.548zM7.974 7.872c.365.609.596 1.26.71 1.949h-1.42c.115-.689.345-1.34.71-1.949zm6.276-6.645c0-.226.177-.409.396-.409V.204A.2.2 0 0114.844 0h.395a.2.2 0 01.198.204v.614c.219 0 .396.183.396.409v1.227H14.25V1.227zm-3.695 0c0-.226.178-.409.396-.409V.204c0-.113.089-.204.198-.204h.396c.109 0 .198.091.198.204v.614c.218 0 .396.183.396.409v1.227h-1.584V1.227zm-3.694 0c0-.226.177-.409.396-.409V.204A.2.2 0 017.454 0h.397a.2.2 0 01.197.204v.614c.219 0 .396.183.396.409v1.227H6.861V1.227zm-3.695 0c0-.226.178-.409.396-.409V.204c0-.113.089-.204.198-.204h.396c.109 0 .198.091.198.204v.614c.219 0 .396.183.396.409v1.227H3.166V1.227zM4.75 16.772c0 .227-.177.41-.396.41v.613a.202.202 0 01-.198.205H3.76a.202.202 0 01-.198-.205v-.613a.403.403 0 01-.396-.41v-1.227H4.75v1.227zm3.694 0c0 .227-.177.41-.396.41v.613a.201.201 0 01-.197.205h-.397a.201.201 0 01-.197-.205v-.613a.403.403 0 01-.396-.41v-1.227h1.583v1.227zm3.695 0c0 .227-.178.41-.396.41v.613a.202.202 0 01-.198.205h-.396a.202.202 0 01-.198-.205v-.613a.403.403 0 01-.396-.41v-1.227h1.584v1.227zm3.694 0c0 .227-.177.41-.396.41v.613a.201.201 0 01-.198.205h-.395a.201.201 0 01-.198-.205v-.613a.403.403 0 01-.396-.41v-1.227h1.583v1.227z"/></svg>