<svg xmlns="http://www.w3.org/2000/svg" width="21" height="18"><path fill-rule="evenodd" fill="#5CBA4A" d="M20.124 17.999H.874a.888.888 0 01-.875-.9V.899c0-.498.392-.901.875-.901h19.25c.484 0 .875.403.875.901v16.2c0 .497-.391.9-.875.9zm-.875-15.75a.444.444 0 00-.437-.45H2.186a.444.444 0 00-.437.45v13.499c0 .249.196.451.437.451h16.626a.444.444 0 00.437-.451V2.249zM3.061 9.674h2.873v-3.6h1.782l.002 6.299h4.373l.003-2.699h3.549a.445.445 0 00.438-.451v-.449a.445.445 0 00-.438-.45h-4.862l.001 2.7H9.028l.003-6.3H4.628l-.007 3.6h-1.56V3.148h14.876v11.701H3.061V9.674z"/></svg>