<svg xmlns="http://www.w3.org/2000/svg" width="20" height="20"><path fill-rule="evenodd" fill="#5CBA4A" d="M9.994.016C4.476.016.003 4.489.003 10.007s4.473 9.991 9.991 9.991 9.991-4.473 9.991-9.991S15.512.016 9.994.016zm6.467 10.35c0 .283-.23.513-.513.513h-3.041c-.465 0-.871-.312-.991-.761l-.298-1.117-2.108 5.773a1.024 1.024 0 01-.962.674l-.036-.001a1.025 1.025 0 01-.95-.74l-1.104-3.828H4.04a.513.513 0 01-.512-.513V9.341c0-.283.23-.512.512-.512h3.189c.457 0 .858.302.985.741l.448 1.551 2.146-5.879c.154-.422.56-.71 1.01-.673.447.02.829.327.944.76l.933 3.5h2.253c.283 0 .513.229.513.512v1.025z"/></svg>