<?xml version="1.0" encoding="UTF-8"?>
<svg width="752pt" fill="white" height="752pt" version="1.1" viewBox="0 0 752 752" xmlns="http://www.w3.org/2000/svg">
 <g>
  <path d="m378.02 163.75c-70.469 0-127.6 57.129-127.6 127.6 0 106.55 127.14 296.09 127.6 296.07 0.54297-0.019531 127.6-191.2 127.6-296.07 0.003906-70.469-57.121-127.6-127.6-127.6zm0.66406 234.11c-58.945 0-106.73-47.781-106.73-106.72 0-58.945 47.781-106.73 106.73-106.73 58.941 0 106.72 47.781 106.72 106.72 0 58.945-47.781 106.73-106.72 106.73z"/>
  <path d="m457.92 298.3c0.28125 0.14844 0.55859 0.29688 0.78125 0.41797-0.1875-0.10156-0.45312-0.24219-0.78125-0.41797z"/>
  <path d="m456.73 297.66c0.22266 0.11719 0.42188 0.22266 0.60547 0.32031-0.23438-0.12891-0.45312-0.24219-0.60547-0.32031z"/>
  <path d="m456.51 297.55c0.082031 0.042969 0.14062 0.074219 0.21484 0.11328-0.12891-0.066406-0.21484-0.11328-0.21484-0.11328z"/>
  <path d="m458.7 298.71c0.71484 0.38281 0.50781 0.26953 0 0z"/>
  <path d="m460.92 294.1c-0.003907-0.007812-0.003907-0.007812 0 0z"/>
  <path d="m463.45 300.09c0.015625 0.03125 0.015625 0.03125 0 0z"/>
  <path d="m432.86 239.79h-20.547v-4.3867c0-7.2656-2.9414-13.152-6.5742-13.152h-54.242c-3.6289 0-6.5742 5.8867-6.5742 13.152v4.3867h-20.551c-7.2617 0-13.148 5.8867-13.148 13.148v71.781c0 7.2578 5.8867 13.148 13.148 13.148h108.48c7.2617 0 13.148-5.8906 13.148-13.148l0.003906-71.781c0.003907-7.2617-5.8867-13.148-13.148-13.148zm-54.516 78.359c-15.887 0-28.766-12.879-28.766-28.766 0-15.891 12.879-28.766 28.766-28.766s28.766 12.879 28.762 28.766c0 15.887-12.879 28.766-28.762 28.766z"/>
 </g>
</svg>
